<svg xmlns="http://www.w3.org/2000/svg" width="44" height="72" fill="none"><path stroke="#000" stroke-linecap="round" stroke-linejoin="round" stroke-width="2" d="M19.99 34.157c-1.35-2.095-3.641-3.383-3.641-3.383-1.031-.623-2.175-1.061-3.377-1.194-2.594-.286-5.185.982-7.063 2.712-1.126 1.037-2.134 2.564-2.186 4.144-.036 1.08.374 2.603 1.672 2.666 2.257.11 3.432-2.614 5.4-3.303 1.9-.665 4.096.014 5.39 1.529 1.556 1.819 1.682 4.53.525 6.6-1.206 2.158-4.016 3.089-6.235 1.903-1.23-.658-1.871-1.976-2.443-3.183-.431-.909-.703-2.98-2.53-2.889-1.486.073-2.166 1.606-2.312 3.106-.266 2.726.534 5.75 1.8 8.157 5.325 10.132 23.867 11.893 30.875 2.777 0 0 4.07-3.388 4.633-12.007.294-4.51.316-8.118.184-12.557-.07-2.396-.645-11.12-4.175-11.556-2.803-.346-3.37 4.275-3.563 6.14-.423 4.069.477 7.591 1.269 11.59-1.099-5.83-2.775-10.826-4.66-16.933-.656-1.707-1.185-3.494-2.37-4.91a4.48 4.48 0 0 0-.046-.054c-2.124-2.447-4.944.928-4.519 4.14v0c.554 4.197 1.853 8.405 3.205 12.402.766 2.262 1.145 3.64 1.966 6.05 0 0-3.308-12.772-9.254-18.612-1.555-1.526-6.159-5.968-8.466-3.12-2.114 2.609 2.325 6.878 3.637 8.96 1.126 1.79 4.744 6.634 6.259 10.719"/></svg>