<svg width="56" height="56" viewBox="0 0 56 56" fill="none" xmlns="http://www.w3.org/2000/svg">
<path d="M35.2127 11.127C35.7062 11.8375 36.0695 12.6278 36.3275 13.3272C36.5508 13.3136 36.7742 13.3207 36.9964 13.3456C37.7414 13.4374 38.4239 13.8289 39.0052 14.3297C39.6159 14.8559 40.1921 15.5679 40.7116 16.4116C41.7519 18.101 42.6321 20.428 43.1061 23.188C43.7166 26.843 43.7897 30.6353 43.0816 34.2826C42.3548 38.026 40.7341 41.6762 37.634 44.0598C31.5223 48.6886 22.3094 47.7237 16.7285 42.6911C15.3851 41.4684 14.3154 39.9345 13.5971 38.4248C12.8889 36.9363 12.4698 35.3597 12.5568 34.0503C12.639 32.9817 12.9851 31.9251 13.7853 31.1768C13.1897 30.5464 12.8348 29.7493 12.749 29.0267L12.7403 28.9433C12.6209 27.6246 13.0646 26.3981 13.7115 25.3989C14.3588 24.3993 15.2501 23.5601 16.1585 22.9802L16.2692 22.9111C17.8529 21.9416 19.7795 21.6371 21.5155 21.8727C21.3325 21.3326 21.1375 20.7373 20.9489 20.1242C20.4793 18.5977 20.0134 16.8494 19.9109 15.5563C19.8077 14.1338 20.1227 12.673 21.1571 11.6352C21.9295 10.8603 22.8353 10.5654 23.2895 10.4515C24.3184 10.2081 25.4285 10.4452 26.3194 10.9947C26.657 11.2087 26.9521 11.4665 27.2093 11.7443C27.2992 11.566 27.3981 11.3928 27.5059 11.2261C28.3391 9.93722 29.745 8.96101 31.5508 8.96094C33.0993 8.99063 34.3511 9.88642 35.2127 11.127ZM23.0778 29.9242C22.3646 29.7333 21.5858 29.8468 20.9362 30.1856C20.3073 30.5351 19.8237 31.0347 19.2374 31.4351C19.7712 31.894 20.2209 32.4265 20.5783 32.9285C21.0053 33.5281 21.31 33.8381 21.596 34.0157C21.8524 34.175 22.1785 34.2797 22.7527 34.2797C23.1532 34.2797 23.7611 34.0563 24.1899 33.5802C24.5706 33.1573 24.8418 32.5005 24.5753 31.4979C24.3226 30.5471 23.7396 30.1014 23.0778 29.9242ZM34.2366 14.1311C33.8118 12.9684 33.0012 11.2266 31.551 11.2009C29.6298 11.201 28.4906 13.3743 28.9186 15.0921C29.6921 17.9281 30.587 20.753 30.9902 23.6738C31.0763 24.3686 30.8783 25.1191 30.0498 25.2182C29.4548 25.2894 28.913 24.8802 28.813 24.2962C28.4236 21.3399 27.5094 18.5049 26.7451 15.6337C26.6694 15.3299 26.4914 14.7558 26.1915 14.1821C25.7921 13.4183 25.2427 12.7426 24.357 12.6228C23.757 12.5417 23.1727 12.7861 22.7437 13.2165C22.1476 13.8146 22.09 14.6918 22.1533 15.4889C22.251 16.4991 22.6332 17.9813 23.0898 19.4658C23.4828 20.7433 23.9697 21.9878 24.3765 23.2595C24.4906 23.6689 24.363 24.1111 24.0418 24.3968C23.6991 24.7015 23.2052 24.7667 22.7954 24.5611C21.3364 23.8293 19.0826 23.8169 17.4415 24.8197C16.7088 25.2778 16.0626 25.8895 15.5919 26.6165C15.1333 27.3248 14.9091 28.0563 14.9711 28.7412C15.0217 29.1445 15.2556 29.5303 15.5703 29.7838C16.0672 30.184 16.6816 30.119 17.2494 29.924C18.2761 29.562 19.0037 28.6828 19.9488 28.1733C20.9978 27.6246 22.3821 27.4191 23.6568 27.7603C25.0364 28.1296 26.2668 29.1412 26.7403 30.9226C27.2 32.6521 26.7448 34.09 25.8546 35.0788C25.0124 36.0142 23.8048 36.5197 22.7527 36.5197C21.8744 36.5197 21.111 36.3511 20.4143 35.9184C19.7471 35.504 19.2347 34.9033 18.7537 34.2279C18.1053 33.3172 16.5308 31.7452 15.3441 32.7868C14.1 33.8787 15.1076 36.3858 15.6199 37.4625C16.2287 38.742 17.1329 40.0304 18.2362 41.0345C23.0288 45.3459 31.0026 46.2672 36.268 42.2847C38.7776 40.3549 40.2142 37.2989 40.8827 33.8558C41.5392 30.4745 41.464 26.9551 40.8985 23.5671C40.4645 21.0402 39.6705 18.9931 38.8041 17.586C38.3703 16.8815 37.9351 16.3646 37.543 16.0268C37.0897 15.6362 36.5832 15.4483 36.0048 15.668C34.6744 16.2244 34.7923 17.7066 35.0364 18.8633C35.4331 20.7432 36.0828 22.5645 36.434 24.4541C36.5495 25.1118 36.2857 25.8176 35.5467 25.9399C34.9555 26.0377 34.3959 25.6534 34.2697 25.0745C34.0326 23.8212 33.6749 22.5965 33.3461 21.3649C32.6915 18.913 31.8715 15.9701 34.2366 14.1311Z" fill="black"/>
</svg>
